<?xml version="1.0" encoding="UTF-8" standalone="no"?>
<svg
   xmlns:dc="http://purl.org/dc/elements/1.1/"
   xmlns:cc="http://creativecommons.org/ns#"
   xmlns:rdf="http://www.w3.org/1999/02/22-rdf-syntax-ns#"
   xmlns:svg="http://www.w3.org/2000/svg"
   xmlns="http://www.w3.org/2000/svg"
   viewBox="0 0 358.32336 206.05573"
   height="206.05573"
   width="358.32336"
   xml:space="preserve"
   id="svg4637"
   version="1.1"><metadata
     id="metadata4643"><rdf:RDF><cc:Work
         rdf:about=""><dc:format>image/svg+xml</dc:format><dc:type
           rdf:resource="http://purl.org/dc/dcmitype/StillImage" /><dc:title></dc:title></cc:Work></rdf:RDF></metadata><defs
     id="defs4641"><clipPath
       id="clipPath4655"
       clipPathUnits="userSpaceOnUse"><path
         id="path4653"
         d="M 0,-4.076958e-5 H 612 V 791.99996 H 0 Z" /></clipPath><clipPath
       id="clipPath5063"
       clipPathUnits="userSpaceOnUse"><rect
         transform="scale(1,-1)"
         style="stroke-width:0.75"
         y="-779.23468"
         x="26.696278"
         height="154.54179"
         width="268.74252"
         id="rect5065" /></clipPath></defs><g
     transform="matrix(1.3333333,0,0,-1.3333333,-35.595036,1038.9795)"
     id="g4645"><g
       id="g4647" /><g
       clip-path="url(#clipPath5063)"
       id="g4649"><g
         clip-path="url(#clipPath4655)"
         id="g4651"><g
           transform="matrix(0.5454545,0,0,-0.5454545,0,792)"
           id="g4657"><path
             id="path4659"
             style="fill:none;stroke:#000000;stroke-width:1;stroke-linecap:butt;stroke-linejoin:miter;stroke-miterlimit:10;stroke-dasharray:none;stroke-opacity:0.1"
             d="M 0,-8.5 H 1122" /></g><g
           transform="matrix(0.5454545,0,0,-0.5454545,0,792)"
           id="g4661"><path
             id="path4663"
             style="fill:none;stroke:#000000;stroke-width:1;stroke-linecap:butt;stroke-linejoin:miter;stroke-miterlimit:10;stroke-dasharray:none;stroke-opacity:0.1"
             d="M 0,21.5 H 1122" /></g><g
           transform="matrix(0.5454545,0,0,-0.5454545,0,792)"
           id="g4665"><path
             id="path4667"
             style="fill:none;stroke:#000000;stroke-width:1;stroke-linecap:butt;stroke-linejoin:miter;stroke-miterlimit:10;stroke-dasharray:none;stroke-opacity:0.1"
             d="M 0,51.5 H 1122" /></g><g
           transform="matrix(0.5454545,0,0,-0.5454545,0,792)"
           id="g4669"><path
             id="path4671"
             style="fill:none;stroke:#000000;stroke-width:1;stroke-linecap:butt;stroke-linejoin:miter;stroke-miterlimit:10;stroke-dasharray:none;stroke-opacity:0.1"
             d="M 0,81.5 H 1122" /></g><g
           transform="matrix(0.5454545,0,0,-0.5454545,0,792)"
           id="g4673"><path
             id="path4675"
             style="fill:none;stroke:#000000;stroke-width:1;stroke-linecap:butt;stroke-linejoin:miter;stroke-miterlimit:10;stroke-dasharray:none;stroke-opacity:0.1"
             d="M 0,111.5 H 1122" /></g><g
           transform="matrix(0.5454545,0,0,-0.5454545,0,792)"
           id="g4677"><path
             id="path4679"
             style="fill:none;stroke:#000000;stroke-width:1;stroke-linecap:butt;stroke-linejoin:miter;stroke-miterlimit:10;stroke-dasharray:none;stroke-opacity:0.1"
             d="M 0,141.5 H 1122" /></g><g
           transform="matrix(0.5454545,0,0,-0.5454545,0,792)"
           id="g4681"><path
             id="path4683"
             style="fill:none;stroke:#000000;stroke-width:1;stroke-linecap:butt;stroke-linejoin:miter;stroke-miterlimit:10;stroke-dasharray:none;stroke-opacity:0.1"
             d="M 0,171.5 H 1122" /></g><g
           transform="matrix(0.5454545,0,0,-0.5454545,0,792)"
           id="g4685"><path
             id="path4687"
             style="fill:none;stroke:#000000;stroke-width:1;stroke-linecap:butt;stroke-linejoin:miter;stroke-miterlimit:10;stroke-dasharray:none;stroke-opacity:0.1"
             d="M 0,201.5 H 1122" /></g><g
           transform="matrix(0.5454545,0,0,-0.5454545,0,792)"
           id="g4689"><path
             id="path4691"
             style="fill:none;stroke:#000000;stroke-width:1;stroke-linecap:butt;stroke-linejoin:miter;stroke-miterlimit:10;stroke-dasharray:none;stroke-opacity:0.1"
             d="M 0,231.5 H 1122" /></g><g
           transform="matrix(0.5454545,0,0,-0.5454545,0,792)"
           id="g4693"><path
             id="path4695"
             style="fill:none;stroke:#000000;stroke-width:1;stroke-linecap:butt;stroke-linejoin:miter;stroke-miterlimit:10;stroke-dasharray:none;stroke-opacity:0.1"
             d="M 0,261.5 H 1122" /></g><g
           transform="matrix(0.5454545,0,0,-0.5454545,0,792)"
           id="g4697"><path
             id="path4699"
             style="fill:none;stroke:#000000;stroke-width:1;stroke-linecap:butt;stroke-linejoin:miter;stroke-miterlimit:10;stroke-dasharray:none;stroke-opacity:0.1"
             d="M 0,291.5 H 1122" /></g><g
           transform="matrix(0.5454545,0,0,-0.5454545,0,792)"
           id="g4701"><path
             id="path4703"
             style="fill:none;stroke:#000000;stroke-width:1;stroke-linecap:butt;stroke-linejoin:miter;stroke-miterlimit:10;stroke-dasharray:none;stroke-opacity:0.1"
             d="M 0,321.5 H 1122" /></g><g
           transform="matrix(0.5454545,0,0,-0.5454545,0,792)"
           id="g4705"><path
             id="path4707"
             style="fill:none;stroke:#000000;stroke-width:1;stroke-linecap:butt;stroke-linejoin:miter;stroke-miterlimit:10;stroke-dasharray:none;stroke-opacity:0.1"
             d="M 0,351.5 H 1122" /></g><g
           transform="matrix(0.5454545,0,0,-0.5454545,0,792)"
           id="g4709"><path
             id="path4711"
             style="fill:none;stroke:#000000;stroke-width:1;stroke-linecap:butt;stroke-linejoin:miter;stroke-miterlimit:10;stroke-dasharray:none;stroke-opacity:0.1"
             d="M 0,381.5 H 1122" /></g><g
           transform="matrix(0.5454545,0,0,-0.5454545,0,792)"
           id="g4713"><path
             id="path4715"
             style="fill:none;stroke:#000000;stroke-width:1;stroke-linecap:butt;stroke-linejoin:miter;stroke-miterlimit:10;stroke-dasharray:none;stroke-opacity:0.1"
             d="M 0,411.5 H 1122" /></g><g
           transform="matrix(0.5454545,0,0,-0.5454545,0,792)"
           id="g4717"><path
             id="path4719"
             style="fill:none;stroke:#000000;stroke-width:1;stroke-linecap:butt;stroke-linejoin:miter;stroke-miterlimit:10;stroke-dasharray:none;stroke-opacity:0.1"
             d="M 0,441.5 H 1122" /></g><g
           transform="matrix(0.5454545,0,0,-0.5454545,0,792)"
           id="g4721"><path
             id="path4723"
             style="fill:none;stroke:#000000;stroke-width:1;stroke-linecap:butt;stroke-linejoin:miter;stroke-miterlimit:10;stroke-dasharray:none;stroke-opacity:0.1"
             d="M 0,471.5 H 1122" /></g><g
           transform="matrix(0.5454545,0,0,-0.5454545,0,792)"
           id="g4725"><path
             id="path4727"
             style="fill:none;stroke:#000000;stroke-width:1;stroke-linecap:butt;stroke-linejoin:miter;stroke-miterlimit:10;stroke-dasharray:none;stroke-opacity:0.1"
             d="M 0,501.5 H 1122" /></g><g
           transform="matrix(0.5454545,0,0,-0.5454545,0,792)"
           id="g4729"><path
             id="path4731"
             style="fill:none;stroke:#000000;stroke-width:1;stroke-linecap:butt;stroke-linejoin:miter;stroke-miterlimit:10;stroke-dasharray:none;stroke-opacity:0.1"
             d="M 0,531.5 H 1122" /></g><g
           transform="matrix(0.5454545,0,0,-0.5454545,0,792)"
           id="g4733"><path
             id="path4735"
             style="fill:none;stroke:#000000;stroke-width:1;stroke-linecap:butt;stroke-linejoin:miter;stroke-miterlimit:10;stroke-dasharray:none;stroke-opacity:0.1"
             d="M 0,561.5 H 1122" /></g><g
           transform="matrix(0.5454545,0,0,-0.5454545,0,792)"
           id="g4737"><path
             id="path4739"
             style="fill:none;stroke:#000000;stroke-width:1;stroke-linecap:butt;stroke-linejoin:miter;stroke-miterlimit:10;stroke-dasharray:none;stroke-opacity:0.1"
             d="M 0,591.5 H 1122" /></g><g
           transform="matrix(0.5454545,0,0,-0.5454545,0,792)"
           id="g4741"><path
             id="path4743"
             style="fill:none;stroke:#000000;stroke-width:1;stroke-linecap:butt;stroke-linejoin:miter;stroke-miterlimit:10;stroke-dasharray:none;stroke-opacity:0.1"
             d="M 0,621.5 H 1122" /></g><g
           transform="matrix(0.5454545,0,0,-0.5454545,0,792)"
           id="g4745"><path
             id="path4747"
             style="fill:none;stroke:#000000;stroke-width:1;stroke-linecap:butt;stroke-linejoin:miter;stroke-miterlimit:10;stroke-dasharray:none;stroke-opacity:0.1"
             d="M 0,651.5 H 1122" /></g><g
           transform="matrix(0.5454545,0,0,-0.5454545,0,792)"
           id="g4749"><path
             id="path4751"
             style="fill:none;stroke:#000000;stroke-width:1;stroke-linecap:butt;stroke-linejoin:miter;stroke-miterlimit:10;stroke-dasharray:none;stroke-opacity:0.1"
             d="M 0,681.5 H 1122" /></g><g
           transform="matrix(0.5454545,0,0,-0.5454545,0,792)"
           id="g4753"><path
             id="path4755"
             style="fill:none;stroke:#000000;stroke-width:1;stroke-linecap:butt;stroke-linejoin:miter;stroke-miterlimit:10;stroke-dasharray:none;stroke-opacity:0.1"
             d="M 0,711.5 H 1122" /></g><g
           transform="matrix(0.5454545,0,0,-0.5454545,0,792)"
           id="g4757"><path
             id="path4759"
             style="fill:none;stroke:#000000;stroke-width:1;stroke-linecap:butt;stroke-linejoin:miter;stroke-miterlimit:10;stroke-dasharray:none;stroke-opacity:0.1"
             d="M 0,741.5 H 1122" /></g><g
           transform="matrix(0.5454545,0,0,-0.5454545,0,792)"
           id="g4761"><path
             id="path4763"
             style="fill:none;stroke:#000000;stroke-width:1;stroke-linecap:butt;stroke-linejoin:miter;stroke-miterlimit:10;stroke-dasharray:none;stroke-opacity:0.1"
             d="M 0,771.5 H 1122" /></g><g
           transform="matrix(0.5454545,0,0,-0.5454545,0,792)"
           id="g4765"><path
             id="path4767"
             style="fill:none;stroke:#000000;stroke-width:1;stroke-linecap:butt;stroke-linejoin:miter;stroke-miterlimit:10;stroke-dasharray:none;stroke-opacity:0.1"
             d="M 0,801.5 H 1122" /></g><g
           transform="matrix(0.5454545,0,0,-0.5454545,0,792)"
           id="g4769"><path
             id="path4771"
             style="fill:none;stroke:#000000;stroke-width:1;stroke-linecap:butt;stroke-linejoin:miter;stroke-miterlimit:10;stroke-dasharray:none;stroke-opacity:0.1"
             d="M 0,831.5 H 1122" /></g><g
           transform="matrix(0.5454545,0,0,-0.5454545,0,792)"
           id="g4773"><path
             id="path4775"
             style="fill:none;stroke:#000000;stroke-width:1;stroke-linecap:butt;stroke-linejoin:miter;stroke-miterlimit:10;stroke-dasharray:none;stroke-opacity:0.1"
             d="M 0,861.5 H 1122" /></g><g
           transform="matrix(0.5454545,0,0,-0.5454545,0,792)"
           id="g4777"><path
             id="path4779"
             style="fill:none;stroke:#000000;stroke-width:1;stroke-linecap:butt;stroke-linejoin:miter;stroke-miterlimit:10;stroke-dasharray:none;stroke-opacity:0.1"
             d="M 0,891.5 H 1122" /></g><g
           transform="matrix(0.5454545,0,0,-0.5454545,0,792)"
           id="g4781"><path
             id="path4783"
             style="fill:none;stroke:#000000;stroke-width:1;stroke-linecap:butt;stroke-linejoin:miter;stroke-miterlimit:10;stroke-dasharray:none;stroke-opacity:0.1"
             d="M 0,921.5 H 1122" /></g><g
           transform="matrix(0.5454545,0,0,-0.5454545,0,792)"
           id="g4785"><path
             id="path4787"
             style="fill:none;stroke:#000000;stroke-width:1;stroke-linecap:butt;stroke-linejoin:miter;stroke-miterlimit:10;stroke-dasharray:none;stroke-opacity:0.1"
             d="M 0,951.5 H 1122" /></g><g
           transform="matrix(0.5454545,0,0,-0.5454545,0,792)"
           id="g4789"><path
             id="path4791"
             style="fill:none;stroke:#000000;stroke-width:1;stroke-linecap:butt;stroke-linejoin:miter;stroke-miterlimit:10;stroke-dasharray:none;stroke-opacity:0.1"
             d="M 0,981.5 H 1122" /></g><g
           transform="matrix(0.5454545,0,0,-0.5454545,0,792)"
           id="g4793"><path
             id="path4795"
             style="fill:none;stroke:#000000;stroke-width:1;stroke-linecap:butt;stroke-linejoin:miter;stroke-miterlimit:10;stroke-dasharray:none;stroke-opacity:0.1"
             d="M 0,1011.5 H 1122" /></g><g
           transform="matrix(0.5454545,0,0,-0.5454545,0,792)"
           id="g4797"><path
             id="path4799"
             style="fill:none;stroke:#000000;stroke-width:1;stroke-linecap:butt;stroke-linejoin:miter;stroke-miterlimit:10;stroke-dasharray:none;stroke-opacity:0.1"
             d="M 0,1041.5 H 1122" /></g><g
           transform="matrix(0.5454545,0,0,-0.5454545,0,792)"
           id="g4801"><path
             id="path4803"
             style="fill:none;stroke:#000000;stroke-width:1;stroke-linecap:butt;stroke-linejoin:miter;stroke-miterlimit:10;stroke-dasharray:none;stroke-opacity:0.1"
             d="M 0,1071.5 H 1122" /></g><g
           transform="matrix(0.5454545,0,0,-0.5454545,0,792)"
           id="g4805"><path
             id="path4807"
             style="fill:none;stroke:#000000;stroke-width:1;stroke-linecap:butt;stroke-linejoin:miter;stroke-miterlimit:10;stroke-dasharray:none;stroke-opacity:0.1"
             d="M 0,1101.5 H 1122" /></g><g
           transform="matrix(0.5454545,0,0,-0.5454545,0,792)"
           id="g4809"><path
             id="path4811"
             style="fill:none;stroke:#000000;stroke-width:1;stroke-linecap:butt;stroke-linejoin:miter;stroke-miterlimit:10;stroke-dasharray:none;stroke-opacity:0.1"
             d="M 0,1131.5 H 1122" /></g><g
           transform="matrix(0.5454545,0,0,-0.5454545,0,792)"
           id="g4813"><path
             id="path4815"
             style="fill:none;stroke:#000000;stroke-width:1;stroke-linecap:butt;stroke-linejoin:miter;stroke-miterlimit:10;stroke-dasharray:none;stroke-opacity:0.1"
             d="M 0,1161.5 H 1122" /></g><g
           transform="matrix(0.5454545,0,0,-0.5454545,0,792)"
           id="g4817"><path
             id="path4819"
             style="fill:none;stroke:#000000;stroke-width:1;stroke-linecap:butt;stroke-linejoin:miter;stroke-miterlimit:10;stroke-dasharray:none;stroke-opacity:0.1"
             d="M 0,1191.5 H 1122" /></g><g
           transform="matrix(0.5454545,0,0,-0.5454545,0,792)"
           id="g4821"><path
             id="path4823"
             style="fill:none;stroke:#000000;stroke-width:1;stroke-linecap:butt;stroke-linejoin:miter;stroke-miterlimit:10;stroke-dasharray:none;stroke-opacity:0.1"
             d="M 0,1221.5 H 1122" /></g><g
           transform="matrix(0.5454545,0,0,-0.5454545,0,792)"
           id="g4825"><path
             id="path4827"
             style="fill:none;stroke:#000000;stroke-width:1;stroke-linecap:butt;stroke-linejoin:miter;stroke-miterlimit:10;stroke-dasharray:none;stroke-opacity:0.1"
             d="M 0,1251.5 H 1122" /></g><g
           transform="matrix(0.5454545,0,0,-0.5454545,0,792)"
           id="g4829"><path
             id="path4831"
             style="fill:none;stroke:#000000;stroke-width:1;stroke-linecap:butt;stroke-linejoin:miter;stroke-miterlimit:10;stroke-dasharray:none;stroke-opacity:0.1"
             d="M 0,1281.5 H 1122" /></g><g
           transform="matrix(0.5454545,0,0,-0.5454545,0,792)"
           id="g4833"><path
             id="path4835"
             style="fill:none;stroke:#000000;stroke-width:1;stroke-linecap:butt;stroke-linejoin:miter;stroke-miterlimit:10;stroke-dasharray:none;stroke-opacity:0.1"
             d="M 0,1311.5 H 1122" /></g><g
           transform="matrix(0.5454545,0,0,-0.5454545,0,792)"
           id="g4837"><path
             id="path4839"
             style="fill:none;stroke:#000000;stroke-width:1;stroke-linecap:butt;stroke-linejoin:miter;stroke-miterlimit:10;stroke-dasharray:none;stroke-opacity:0.1"
             d="M 0,1341.5 H 1122" /></g><g
           transform="matrix(0.5454545,0,0,-0.5454545,0,792)"
           id="g4841"><path
             id="path4843"
             style="fill:none;stroke:#000000;stroke-width:1;stroke-linecap:butt;stroke-linejoin:miter;stroke-miterlimit:10;stroke-dasharray:none;stroke-opacity:0.1"
             d="M 0,1371.5 H 1122" /></g><g
           transform="matrix(0.5454545,0,0,-0.5454545,0,792)"
           id="g4845"><path
             id="path4847"
             style="fill:none;stroke:#000000;stroke-width:1;stroke-linecap:butt;stroke-linejoin:miter;stroke-miterlimit:10;stroke-dasharray:none;stroke-opacity:0.1"
             d="M 0,1401.5 H 1122" /></g><g
           transform="matrix(0.5454545,0,0,-0.5454545,0,792)"
           id="g4849"><path
             id="path4851"
             style="fill:none;stroke:#000000;stroke-width:1;stroke-linecap:butt;stroke-linejoin:miter;stroke-miterlimit:10;stroke-dasharray:none;stroke-opacity:0.1"
             d="M 0,1431.5 H 1122" /></g><g
           transform="matrix(0.5454545,0,0,-0.5454545,0,792)"
           id="g4853"><path
             id="path4855"
             style="fill:none;stroke:#000000;stroke-width:1;stroke-linecap:butt;stroke-linejoin:miter;stroke-miterlimit:10;stroke-dasharray:none;stroke-opacity:0.1"
             d="M -8.5,0 V 1452" /></g><g
           transform="matrix(0.5454545,0,0,-0.5454545,0,792)"
           id="g4857"><path
             id="path4859"
             style="fill:none;stroke:#000000;stroke-width:1;stroke-linecap:butt;stroke-linejoin:miter;stroke-miterlimit:10;stroke-dasharray:none;stroke-opacity:0.1"
             d="M 21.5,0 V 1452" /></g><g
           transform="matrix(0.5454545,0,0,-0.5454545,0,792)"
           id="g4861"><path
             id="path4863"
             style="fill:none;stroke:#000000;stroke-width:1;stroke-linecap:butt;stroke-linejoin:miter;stroke-miterlimit:10;stroke-dasharray:none;stroke-opacity:0.1"
             d="M 51.5,0 V 1452" /></g><g
           transform="matrix(0.5454545,0,0,-0.5454545,0,792)"
           id="g4865"><path
             id="path4867"
             style="fill:none;stroke:#000000;stroke-width:1;stroke-linecap:butt;stroke-linejoin:miter;stroke-miterlimit:10;stroke-dasharray:none;stroke-opacity:0.1"
             d="M 81.5,0 V 1452" /></g><g
           transform="matrix(0.5454545,0,0,-0.5454545,0,792)"
           id="g4869"><path
             id="path4871"
             style="fill:none;stroke:#000000;stroke-width:1;stroke-linecap:butt;stroke-linejoin:miter;stroke-miterlimit:10;stroke-dasharray:none;stroke-opacity:0.1"
             d="M 111.5,0 V 1452" /></g><g
           transform="matrix(0.5454545,0,0,-0.5454545,0,792)"
           id="g4873"><path
             id="path4875"
             style="fill:none;stroke:#000000;stroke-width:1;stroke-linecap:butt;stroke-linejoin:miter;stroke-miterlimit:10;stroke-dasharray:none;stroke-opacity:0.1"
             d="M 141.5,0 V 1452" /></g><g
           transform="matrix(0.5454545,0,0,-0.5454545,0,792)"
           id="g4877"><path
             id="path4879"
             style="fill:none;stroke:#000000;stroke-width:1;stroke-linecap:butt;stroke-linejoin:miter;stroke-miterlimit:10;stroke-dasharray:none;stroke-opacity:0.1"
             d="M 171.5,0 V 1452" /></g><g
           transform="matrix(0.5454545,0,0,-0.5454545,0,792)"
           id="g4881"><path
             id="path4883"
             style="fill:none;stroke:#000000;stroke-width:1;stroke-linecap:butt;stroke-linejoin:miter;stroke-miterlimit:10;stroke-dasharray:none;stroke-opacity:0.1"
             d="M 201.5,0 V 1452" /></g><g
           transform="matrix(0.5454545,0,0,-0.5454545,0,792)"
           id="g4885"><path
             id="path4887"
             style="fill:none;stroke:#000000;stroke-width:1;stroke-linecap:butt;stroke-linejoin:miter;stroke-miterlimit:10;stroke-dasharray:none;stroke-opacity:0.1"
             d="M 231.5,0 V 1452" /></g><g
           transform="matrix(0.5454545,0,0,-0.5454545,0,792)"
           id="g4889"><path
             id="path4891"
             style="fill:none;stroke:#000000;stroke-width:1;stroke-linecap:butt;stroke-linejoin:miter;stroke-miterlimit:10;stroke-dasharray:none;stroke-opacity:0.1"
             d="M 261.5,0 V 1452" /></g><g
           transform="matrix(0.5454545,0,0,-0.5454545,0,792)"
           id="g4893"><path
             id="path4895"
             style="fill:none;stroke:#000000;stroke-width:1;stroke-linecap:butt;stroke-linejoin:miter;stroke-miterlimit:10;stroke-dasharray:none;stroke-opacity:0.1"
             d="M 291.5,0 V 1452" /></g><g
           transform="matrix(0.5454545,0,0,-0.5454545,0,792)"
           id="g4897"><path
             id="path4899"
             style="fill:none;stroke:#000000;stroke-width:1;stroke-linecap:butt;stroke-linejoin:miter;stroke-miterlimit:10;stroke-dasharray:none;stroke-opacity:0.1"
             d="M 321.5,0 V 1452" /></g><g
           transform="matrix(0.5454545,0,0,-0.5454545,0,792)"
           id="g4901"><path
             id="path4903"
             style="fill:none;stroke:#000000;stroke-width:1;stroke-linecap:butt;stroke-linejoin:miter;stroke-miterlimit:10;stroke-dasharray:none;stroke-opacity:0.1"
             d="M 351.5,0 V 1452" /></g><g
           transform="matrix(0.5454545,0,0,-0.5454545,0,792)"
           id="g4905"><path
             id="path4907"
             style="fill:none;stroke:#000000;stroke-width:1;stroke-linecap:butt;stroke-linejoin:miter;stroke-miterlimit:10;stroke-dasharray:none;stroke-opacity:0.1"
             d="M 381.5,0 V 1452" /></g><g
           transform="matrix(0.5454545,0,0,-0.5454545,0,792)"
           id="g4909"><path
             id="path4911"
             style="fill:none;stroke:#000000;stroke-width:1;stroke-linecap:butt;stroke-linejoin:miter;stroke-miterlimit:10;stroke-dasharray:none;stroke-opacity:0.1"
             d="M 411.5,0 V 1452" /></g><g
           transform="matrix(0.5454545,0,0,-0.5454545,0,792)"
           id="g4913"><path
             id="path4915"
             style="fill:none;stroke:#000000;stroke-width:1;stroke-linecap:butt;stroke-linejoin:miter;stroke-miterlimit:10;stroke-dasharray:none;stroke-opacity:0.1"
             d="M 441.5,0 V 1452" /></g><g
           transform="matrix(0.5454545,0,0,-0.5454545,0,792)"
           id="g4917"><path
             id="path4919"
             style="fill:none;stroke:#000000;stroke-width:1;stroke-linecap:butt;stroke-linejoin:miter;stroke-miterlimit:10;stroke-dasharray:none;stroke-opacity:0.1"
             d="M 471.5,0 V 1452" /></g><g
           transform="matrix(0.5454545,0,0,-0.5454545,0,792)"
           id="g4921"><path
             id="path4923"
             style="fill:none;stroke:#000000;stroke-width:1;stroke-linecap:butt;stroke-linejoin:miter;stroke-miterlimit:10;stroke-dasharray:none;stroke-opacity:0.1"
             d="M 501.5,0 V 1452" /></g><g
           transform="matrix(0.5454545,0,0,-0.5454545,0,792)"
           id="g4925"><path
             id="path4927"
             style="fill:none;stroke:#000000;stroke-width:1;stroke-linecap:butt;stroke-linejoin:miter;stroke-miterlimit:10;stroke-dasharray:none;stroke-opacity:0.1"
             d="M 531.5,0 V 1452" /></g><g
           transform="matrix(0.5454545,0,0,-0.5454545,0,792)"
           id="g4929"><path
             id="path4931"
             style="fill:none;stroke:#000000;stroke-width:1;stroke-linecap:butt;stroke-linejoin:miter;stroke-miterlimit:10;stroke-dasharray:none;stroke-opacity:0.1"
             d="M 561.5,0 V 1452" /></g><g
           transform="matrix(0.5454545,0,0,-0.5454545,0,792)"
           id="g4933"><path
             id="path4935"
             style="fill:none;stroke:#000000;stroke-width:1;stroke-linecap:butt;stroke-linejoin:miter;stroke-miterlimit:10;stroke-dasharray:none;stroke-opacity:0.1"
             d="M 591.5,0 V 1452" /></g><g
           transform="matrix(0.5454545,0,0,-0.5454545,0,792)"
           id="g4937"><path
             id="path4939"
             style="fill:none;stroke:#000000;stroke-width:1;stroke-linecap:butt;stroke-linejoin:miter;stroke-miterlimit:10;stroke-dasharray:none;stroke-opacity:0.1"
             d="M 621.5,0 V 1452" /></g><g
           transform="matrix(0.5454545,0,0,-0.5454545,0,792)"
           id="g4941"><path
             id="path4943"
             style="fill:none;stroke:#000000;stroke-width:1;stroke-linecap:butt;stroke-linejoin:miter;stroke-miterlimit:10;stroke-dasharray:none;stroke-opacity:0.1"
             d="M 651.5,0 V 1452" /></g><g
           transform="matrix(0.5454545,0,0,-0.5454545,0,792)"
           id="g4945"><path
             id="path4947"
             style="fill:none;stroke:#000000;stroke-width:1;stroke-linecap:butt;stroke-linejoin:miter;stroke-miterlimit:10;stroke-dasharray:none;stroke-opacity:0.1"
             d="M 681.5,0 V 1452" /></g><g
           transform="matrix(0.5454545,0,0,-0.5454545,0,792)"
           id="g4949"><path
             id="path4951"
             style="fill:none;stroke:#000000;stroke-width:1;stroke-linecap:butt;stroke-linejoin:miter;stroke-miterlimit:10;stroke-dasharray:none;stroke-opacity:0.1"
             d="M 711.5,0 V 1452" /></g><g
           transform="matrix(0.5454545,0,0,-0.5454545,0,792)"
           id="g4953"><path
             id="path4955"
             style="fill:none;stroke:#000000;stroke-width:1;stroke-linecap:butt;stroke-linejoin:miter;stroke-miterlimit:10;stroke-dasharray:none;stroke-opacity:0.1"
             d="M 741.5,0 V 1452" /></g><g
           transform="matrix(0.5454545,0,0,-0.5454545,0,792)"
           id="g4957"><path
             id="path4959"
             style="fill:none;stroke:#000000;stroke-width:1;stroke-linecap:butt;stroke-linejoin:miter;stroke-miterlimit:10;stroke-dasharray:none;stroke-opacity:0.1"
             d="M 771.5,0 V 1452" /></g><g
           transform="matrix(0.5454545,0,0,-0.5454545,0,792)"
           id="g4961"><path
             id="path4963"
             style="fill:none;stroke:#000000;stroke-width:1;stroke-linecap:butt;stroke-linejoin:miter;stroke-miterlimit:10;stroke-dasharray:none;stroke-opacity:0.1"
             d="M 801.5,0 V 1452" /></g><g
           transform="matrix(0.5454545,0,0,-0.5454545,0,792)"
           id="g4965"><path
             id="path4967"
             style="fill:none;stroke:#000000;stroke-width:1;stroke-linecap:butt;stroke-linejoin:miter;stroke-miterlimit:10;stroke-dasharray:none;stroke-opacity:0.1"
             d="M 831.5,0 V 1452" /></g><g
           transform="matrix(0.5454545,0,0,-0.5454545,0,792)"
           id="g4969"><path
             id="path4971"
             style="fill:none;stroke:#000000;stroke-width:1;stroke-linecap:butt;stroke-linejoin:miter;stroke-miterlimit:10;stroke-dasharray:none;stroke-opacity:0.1"
             d="M 861.5,0 V 1452" /></g><g
           transform="matrix(0.5454545,0,0,-0.5454545,0,792)"
           id="g4973"><path
             id="path4975"
             style="fill:none;stroke:#000000;stroke-width:1;stroke-linecap:butt;stroke-linejoin:miter;stroke-miterlimit:10;stroke-dasharray:none;stroke-opacity:0.1"
             d="M 891.5,0 V 1452" /></g><g
           transform="matrix(0.5454545,0,0,-0.5454545,0,792)"
           id="g4977"><path
             id="path4979"
             style="fill:none;stroke:#000000;stroke-width:1;stroke-linecap:butt;stroke-linejoin:miter;stroke-miterlimit:10;stroke-dasharray:none;stroke-opacity:0.1"
             d="M 921.5,0 V 1452" /></g><g
           transform="matrix(0.5454545,0,0,-0.5454545,0,792)"
           id="g4981"><path
             id="path4983"
             style="fill:none;stroke:#000000;stroke-width:1;stroke-linecap:butt;stroke-linejoin:miter;stroke-miterlimit:10;stroke-dasharray:none;stroke-opacity:0.1"
             d="M 951.5,0 V 1452" /></g><g
           transform="matrix(0.5454545,0,0,-0.5454545,0,792)"
           id="g4985"><path
             id="path4987"
             style="fill:none;stroke:#000000;stroke-width:1;stroke-linecap:butt;stroke-linejoin:miter;stroke-miterlimit:10;stroke-dasharray:none;stroke-opacity:0.1"
             d="M 981.5,0 V 1452" /></g><g
           transform="matrix(0.5454545,0,0,-0.5454545,0,792)"
           id="g4989"><path
             id="path4991"
             style="fill:none;stroke:#000000;stroke-width:1;stroke-linecap:butt;stroke-linejoin:miter;stroke-miterlimit:10;stroke-dasharray:none;stroke-opacity:0.1"
             d="M 1011.5,0 V 1452" /></g><g
           transform="matrix(0.5454545,0,0,-0.5454545,0,792)"
           id="g4993"><path
             id="path4995"
             style="fill:none;stroke:#000000;stroke-width:1;stroke-linecap:butt;stroke-linejoin:miter;stroke-miterlimit:10;stroke-dasharray:none;stroke-opacity:0.1"
             d="M 1041.5,0 V 1452" /></g><g
           transform="matrix(0.5454545,0,0,-0.5454545,0,792)"
           id="g4997"><path
             id="path4999"
             style="fill:none;stroke:#000000;stroke-width:1;stroke-linecap:butt;stroke-linejoin:miter;stroke-miterlimit:10;stroke-dasharray:none;stroke-opacity:0.1"
             d="M 1071.5,0 V 1452" /></g><g
           transform="matrix(0.5454545,0,0,-0.5454545,0,792)"
           id="g5001"><path
             id="path5003"
             style="fill:none;stroke:#000000;stroke-width:1;stroke-linecap:butt;stroke-linejoin:miter;stroke-miterlimit:10;stroke-dasharray:none;stroke-opacity:0.1"
             d="M 1101.5,0 V 1452" /></g></g></g><g
       id="g5005"><path
         id="path5007"
         style="fill:#000000;fill-opacity:0.1;fill-rule:nonzero;stroke:none"
         d="m 106.154,694.629 h 6.65657 v 6.65657 H 106.154 Z" /><g
         transform="matrix(0.5454546,0,0,-0.5454546,0,792)"
         id="g5009"><path
           id="path5011"
           style="fill:none;stroke:#000000;stroke-width:1.81889796;stroke-linecap:round;stroke-linejoin:round;stroke-miterlimit:10;stroke-dasharray:none;stroke-opacity:1"
           d="m 194.6157,166.3097 h 12.2037 v 12.2037 h -12.2037 v -12.2037" /></g><path
         id="path5013"
         style="fill:#000000;fill-opacity:0.1;fill-rule:nonzero;stroke:none"
         d="m 89.51492,664.1641 h 6.656566 v 6.65657 H 89.51492 Z" /><g
         transform="matrix(0.5454546,0,0,-0.5454546,-16.63909,761.5351)"
         id="g5015"><path
           id="path5017"
           style="fill:none;stroke:#000000;stroke-width:1.81889796;stroke-linecap:round;stroke-linejoin:round;stroke-miterlimit:10;stroke-dasharray:none;stroke-opacity:1"
           d="m 194.6157,166.3097 h 12.2037 v 12.2037 h -12.2037 v -12.2037" /></g><path
         id="path5019"
         style="fill:#000000;fill-opacity:0.1;fill-rule:nonzero;stroke:none"
         d="m 56.87321,727.102 h 6.656566 v 6.65657 H 56.87321 Z" /><g
         transform="matrix(0.5454546,0,0,-0.5454546,-49.28081,824.473)"
         id="g5021"><path
           id="path5023"
           style="fill:none;stroke:#000000;stroke-width:1.81889796;stroke-linecap:round;stroke-linejoin:round;stroke-miterlimit:10;stroke-dasharray:none;stroke-opacity:1"
           d="m 194.6157,166.3097 h 12.2037 v 12.2037 h -12.2037 v -12.2037" /></g><path
         id="path5025"
         style="fill:#000000;fill-opacity:0.1;fill-rule:nonzero;stroke:none"
         d="m 57.45959,662.0141 h 6.656566 v 6.65657 H 57.45959 Z" /><g
         transform="matrix(0.5454546,0,0,-0.5454546,-48.69443,759.385)"
         id="g5027"><path
           id="path5029"
           style="fill:none;stroke:#000000;stroke-width:1.81889796;stroke-linecap:round;stroke-linejoin:round;stroke-miterlimit:10;stroke-dasharray:none;stroke-opacity:1"
           d="m 194.6157,166.3097 h 12.2037 v 12.2037 h -12.2037 v -12.2037" /></g><path
         id="path5031"
         style="fill:#000000;fill-opacity:0.1;fill-rule:nonzero;stroke:none"
         d="m 188.8083,695.0467 h 6.65657 v 6.65657 h -6.65657 z" /><g
         transform="matrix(0.5454546,0,0,-0.5454546,82.65426,792.4176)"
         id="g5033"><path
           id="path5035"
           style="fill:none;stroke:#000000;stroke-width:1.81889796;stroke-linecap:round;stroke-linejoin:round;stroke-miterlimit:10;stroke-dasharray:none;stroke-opacity:1"
           d="m 194.6157,166.3097 h 12.2037 v 12.2037 h -12.2037 v -12.2037" /></g><path
         id="path5037"
         style="fill:#000000;fill-opacity:0.1;fill-rule:nonzero;stroke:none"
         d="m 220.4727,693.483 h 6.65657 v 6.65657 h -6.65657 z" /><g
         transform="matrix(0.5454546,0,0,-0.5454546,114.3187,790.854)"
         id="g5039"><path
           id="path5041"
           style="fill:none;stroke:#000000;stroke-width:1.81889796;stroke-linecap:round;stroke-linejoin:round;stroke-miterlimit:10;stroke-dasharray:none;stroke-opacity:1"
           d="m 194.6157,166.3097 h 12.2037 v 12.2037 h -12.2037 v -12.2037" /></g><path
         id="path5043"
         style="fill:#000000;fill-opacity:0.1;fill-rule:nonzero;stroke:none"
         d="m 204.8359,678.0417 h 6.65657 v 6.65657 h -6.65657 z" /><g
         transform="matrix(0.5454546,0,0,-0.5454546,98.68193,775.4127)"
         id="g5045"><path
           id="path5047"
           style="fill:none;stroke:#000000;stroke-width:1.81889796;stroke-linecap:round;stroke-linejoin:round;stroke-miterlimit:10;stroke-dasharray:none;stroke-opacity:1"
           d="m 194.6157,166.3097 h 12.2037 v 12.2037 h -12.2037 v -12.2037" /></g><path
         id="path5049"
         style="fill:#000000;fill-opacity:0.1;fill-rule:nonzero;stroke:none"
         d="m 237.8686,711.2698 h 6.65657 v 6.65657 h -6.65657 z" /><g
         transform="matrix(0.5454546,0,0,-0.5454546,131.7146,808.6408)"
         id="g5051"><path
           id="path5053"
           style="fill:none;stroke:#000000;stroke-width:1.81889796;stroke-linecap:round;stroke-linejoin:round;stroke-miterlimit:10;stroke-dasharray:none;stroke-opacity:1"
           d="m 194.6157,166.3097 h 12.2037 v 12.2037 h -12.2037 v -12.2037" /></g><path
         id="path5055"
         style="fill:#000000;fill-opacity:0.1;fill-rule:nonzero;stroke:none"
         d="m 221.0591,744.6934 h 6.65657 v 6.65657 h -6.65657 z" /><g
         transform="matrix(0.5454546,0,0,-0.5454546,114.9051,842.0643)"
         id="g5057"><path
           id="path5059"
           style="fill:none;stroke:#000000;stroke-width:1.81889796;stroke-linecap:round;stroke-linejoin:round;stroke-miterlimit:10;stroke-dasharray:none;stroke-opacity:1"
           d="m 194.6157,166.3097 h 12.2037 v 12.2037 h -12.2037 v -12.2037" /></g></g></g></svg>